<?xml version="1.0" encoding="utf-8"?>
<!-- Generator: Adobe Illustrator 26.2.1, SVG Export Plug-In . SVG Version: 6.00 Build 0)  -->
<svg version="1.1" id="Layer_1" xmlns="http://www.w3.org/2000/svg" xmlns:xlink="http://www.w3.org/1999/xlink" x="0px" y="0px"
	 viewBox="0 0 595.3 124.5" style="enable-background:new 0 0 595.3 124.5;" xml:space="preserve">
<style type="text/css">
	.st0{fill:#F1BF40;}
	.st1{fill:#FFFFFF;}
	.st2{fill:#EFBD3F;}
</style>
<path class="st0" d="M171.5,3.6c11.3,0,20.5,9.2,20.5,20.5l0.1,94H24c-11.3,0-20.4-9.3-20.4-20.8V3.6H171.5 M171.5,0H0v97.3
	c0,13.3,10.7,24.3,24,24.3h171.7l-0.1-97.5C195.6,10.8,184.8,0,171.5,0L171.5,0z"/>
<g>
	<path class="st1" d="M213.7,112.4v1h-5.1v2.9h4.8v1h-4.8v3.2h5.2v1h-6.4v-9.2H213.7z"/>
	<path class="st1" d="M214.5,114.9h1.4l1.6,2.3l1.7-2.3h1.3l-2.3,3.1l2.6,3.6h-1.4l-1.9-2.8l-1.9,2.8h-1.3l2.5-3.5L214.5,114.9z"/>
	<path class="st1" d="M222.9,114.9v0.9h0c0.2-0.4,0.5-0.6,0.9-0.8c0.4-0.2,0.8-0.3,1.3-0.3c0.5,0,1,0.1,1.3,0.3
		c0.4,0.2,0.7,0.4,1,0.8s0.4,0.7,0.6,1.1c0.1,0.4,0.2,0.9,0.2,1.3c0,0.5-0.1,0.9-0.2,1.3c-0.1,0.4-0.3,0.8-0.6,1.1
		c-0.3,0.3-0.6,0.6-1,0.7c-0.4,0.2-0.8,0.3-1.3,0.3c-0.2,0-0.3,0-0.5-0.1s-0.4-0.1-0.6-0.2c-0.2-0.1-0.4-0.2-0.6-0.3
		c-0.2-0.1-0.3-0.3-0.4-0.5h0v3.4h-1.1v-9.2H222.9z M226.8,117.3c-0.1-0.3-0.2-0.6-0.4-0.8c-0.2-0.2-0.4-0.4-0.6-0.6
		c-0.3-0.1-0.6-0.2-0.9-0.2c-0.4,0-0.7,0.1-0.9,0.2c-0.3,0.1-0.5,0.3-0.6,0.6c-0.2,0.2-0.3,0.5-0.4,0.8c-0.1,0.3-0.1,0.6-0.1,0.9
		c0,0.3,0,0.6,0.1,0.9c0.1,0.3,0.2,0.6,0.4,0.8s0.4,0.4,0.7,0.6c0.3,0.1,0.6,0.2,1,0.2s0.7-0.1,0.9-0.2c0.3-0.1,0.5-0.3,0.6-0.6
		c0.2-0.2,0.3-0.5,0.3-0.8c0.1-0.3,0.1-0.6,0.1-1C227,117.9,226.9,117.6,226.8,117.3z"/>
	<path class="st1" d="M234.1,121.2c-0.5,0.4-1.1,0.6-1.9,0.6c-0.5,0-1-0.1-1.4-0.3c-0.4-0.2-0.7-0.4-1-0.7c-0.3-0.3-0.5-0.7-0.6-1.1
		c-0.1-0.4-0.2-0.9-0.2-1.4c0-0.5,0.1-1,0.2-1.4s0.4-0.8,0.7-1.1c0.3-0.3,0.6-0.6,1-0.7c0.4-0.2,0.8-0.3,1.3-0.3
		c0.6,0,1.1,0.1,1.5,0.4c0.4,0.2,0.7,0.6,0.9,0.9c0.2,0.4,0.4,0.8,0.5,1.2c0.1,0.4,0.1,0.9,0.1,1.3h-5c0,0.3,0,0.6,0.1,0.8
		c0.1,0.3,0.2,0.5,0.4,0.7c0.2,0.2,0.4,0.4,0.7,0.5c0.3,0.1,0.6,0.2,0.9,0.2c0.5,0,0.8-0.1,1.1-0.3c0.3-0.2,0.5-0.5,0.6-1h1.1
		C235,120.2,234.6,120.8,234.1,121.2z M233.9,116.9c-0.1-0.2-0.2-0.4-0.4-0.6c-0.2-0.2-0.4-0.3-0.6-0.4c-0.2-0.1-0.5-0.1-0.8-0.1
		c-0.3,0-0.5,0-0.8,0.1c-0.2,0.1-0.4,0.2-0.6,0.4c-0.2,0.2-0.3,0.4-0.4,0.6c-0.1,0.2-0.2,0.5-0.2,0.7h3.8
		C234,117.4,234,117.1,233.9,116.9z"/>
	<path class="st1" d="M237.3,114.9v1.4h0c0.3-0.5,0.6-0.9,1-1.2s0.9-0.4,1.5-0.4v1.2c-0.4,0-0.8,0.1-1.1,0.2
		c-0.3,0.1-0.6,0.3-0.7,0.5c-0.2,0.2-0.3,0.5-0.4,0.8c-0.1,0.3-0.1,0.7-0.1,1.1v3h-1.1v-6.7H237.3z"/>
	<path class="st1" d="M243.5,114.9v1h-1.3v4.1c0,0.1,0,0.2,0,0.3c0,0.1,0.1,0.1,0.1,0.2c0.1,0,0.1,0.1,0.3,0.1c0.1,0,0.2,0,0.4,0
		h0.5v1h-0.8c-0.3,0-0.5,0-0.7-0.1c-0.2,0-0.4-0.1-0.5-0.2c-0.1-0.1-0.2-0.2-0.3-0.4s-0.1-0.4-0.1-0.7v-4.2h-1.1v-1h1.1v-2h1.1v2
		H243.5z"/>
	<path class="st1" d="M245.6,120.1c0.1,0.2,0.2,0.3,0.4,0.4c0.2,0.1,0.4,0.2,0.6,0.2c0.2,0,0.4,0.1,0.7,0.1c0.2,0,0.4,0,0.5,0
		c0.2,0,0.4-0.1,0.5-0.1c0.2-0.1,0.3-0.2,0.4-0.3c0.1-0.1,0.2-0.3,0.2-0.5c0-0.3-0.1-0.5-0.3-0.6c-0.2-0.1-0.5-0.3-0.8-0.4
		c-0.3-0.1-0.7-0.2-1.1-0.2c-0.4-0.1-0.7-0.2-1.1-0.3c-0.3-0.1-0.6-0.3-0.8-0.6c-0.2-0.2-0.3-0.6-0.3-1c0-0.3,0.1-0.6,0.2-0.9
		c0.2-0.2,0.3-0.4,0.6-0.6c0.2-0.2,0.5-0.3,0.8-0.3c0.3-0.1,0.6-0.1,0.9-0.1c0.4,0,0.7,0,1,0.1c0.3,0.1,0.6,0.2,0.8,0.3
		c0.2,0.2,0.4,0.4,0.6,0.6c0.1,0.3,0.2,0.6,0.3,1h-1.1c0-0.2-0.1-0.4-0.2-0.5c-0.1-0.1-0.2-0.3-0.4-0.3s-0.3-0.1-0.5-0.2
		c-0.2,0-0.4-0.1-0.5-0.1c-0.2,0-0.3,0-0.5,0c-0.2,0-0.3,0.1-0.5,0.1c-0.1,0.1-0.2,0.2-0.3,0.3s-0.1,0.2-0.1,0.4
		c0,0.2,0.1,0.3,0.2,0.5c0.1,0.1,0.3,0.2,0.5,0.3c0.2,0.1,0.4,0.2,0.7,0.2s0.5,0.1,0.8,0.2c0.3,0.1,0.5,0.1,0.8,0.2
		c0.3,0.1,0.5,0.2,0.7,0.3c0.2,0.1,0.4,0.3,0.5,0.5c0.1,0.2,0.2,0.5,0.2,0.8c0,0.4-0.1,0.7-0.3,1c-0.2,0.3-0.4,0.5-0.7,0.6
		c-0.3,0.2-0.6,0.3-0.9,0.3s-0.7,0.1-1,0.1c-0.4,0-0.7,0-1.1-0.1c-0.3-0.1-0.6-0.2-0.9-0.4c-0.3-0.2-0.5-0.4-0.6-0.7
		c-0.2-0.3-0.2-0.6-0.3-1.1h1.1C245.4,119.7,245.5,119.9,245.6,120.1z"/>
	<path class="st1" d="M254.8,113.7v-1.3h1.1v1.3H254.8z M255.9,114.9v6.7h-1.1v-6.7H255.9z"/>
	<path class="st1" d="M258.7,114.9v1.1h0c0.5-0.8,1.2-1.2,2.2-1.2c0.4,0,0.8,0.1,1.1,0.2c0.3,0.1,0.5,0.3,0.7,0.5
		c0.2,0.2,0.3,0.5,0.4,0.8c0.1,0.3,0.1,0.6,0.1,1v4.4h-1.1v-4.5c0-0.4-0.1-0.7-0.4-1c-0.2-0.2-0.6-0.4-1-0.4c-0.3,0-0.6,0.1-0.9,0.2
		c-0.2,0.1-0.4,0.2-0.6,0.4c-0.2,0.2-0.3,0.4-0.4,0.7c-0.1,0.3-0.1,0.5-0.1,0.8v3.8h-1.1v-6.7H258.7z"/>
	<path class="st1" d="M271.3,114.9v1h-1.3v4.1c0,0.1,0,0.2,0,0.3c0,0.1,0.1,0.1,0.1,0.2c0.1,0,0.1,0.1,0.3,0.1c0.1,0,0.2,0,0.4,0
		h0.5v1h-0.8c-0.3,0-0.5,0-0.7-0.1c-0.2,0-0.4-0.1-0.5-0.2c-0.1-0.1-0.2-0.2-0.3-0.4s-0.1-0.4-0.1-0.7v-4.2h-1.1v-1h1.1v-2h1.1v2
		H271.3z"/>
	<path class="st1" d="M273.6,112.4v3.5h0c0.1-0.2,0.2-0.4,0.4-0.5c0.2-0.1,0.3-0.3,0.5-0.3c0.2-0.1,0.4-0.2,0.6-0.2
		c0.2,0,0.4-0.1,0.6-0.1c0.4,0,0.8,0.1,1.1,0.2c0.3,0.1,0.5,0.3,0.7,0.5c0.2,0.2,0.3,0.5,0.4,0.8c0.1,0.3,0.1,0.6,0.1,1v4.4h-1.1
		v-4.5c0-0.4-0.1-0.7-0.4-1c-0.2-0.2-0.6-0.4-1-0.4c-0.3,0-0.6,0.1-0.9,0.2c-0.2,0.1-0.4,0.2-0.6,0.4c-0.2,0.2-0.3,0.4-0.4,0.7
		c-0.1,0.3-0.1,0.5-0.1,0.8v3.8h-1.1v-9.2H273.6z"/>
	<path class="st1" d="M284.4,121.2c-0.5,0.4-1.1,0.6-1.9,0.6c-0.5,0-1-0.1-1.4-0.3c-0.4-0.2-0.7-0.4-1-0.7c-0.3-0.3-0.5-0.7-0.6-1.1
		c-0.1-0.4-0.2-0.9-0.2-1.4c0-0.5,0.1-1,0.2-1.4c0.2-0.4,0.4-0.8,0.7-1.1c0.3-0.3,0.6-0.6,1-0.7s0.8-0.3,1.3-0.3
		c0.6,0,1.1,0.1,1.5,0.4c0.4,0.2,0.7,0.6,0.9,0.9c0.2,0.4,0.4,0.8,0.5,1.2c0.1,0.4,0.1,0.9,0.1,1.3h-5c0,0.3,0,0.6,0.1,0.8
		c0.1,0.3,0.2,0.5,0.4,0.7c0.2,0.2,0.4,0.4,0.7,0.5c0.3,0.1,0.6,0.2,0.9,0.2c0.5,0,0.8-0.1,1.1-0.3c0.3-0.2,0.5-0.5,0.6-1h1.1
		C285.2,120.2,284.9,120.8,284.4,121.2z M284.1,116.9c-0.1-0.2-0.2-0.4-0.4-0.6c-0.2-0.2-0.4-0.3-0.6-0.4c-0.2-0.1-0.5-0.1-0.8-0.1
		c-0.3,0-0.5,0-0.8,0.1c-0.2,0.1-0.4,0.2-0.6,0.4s-0.3,0.4-0.4,0.6c-0.1,0.2-0.2,0.5-0.2,0.7h3.8
		C284.3,117.4,284.2,117.1,284.1,116.9z"/>
	<path class="st1" d="M291,120.1c0.1,0.2,0.2,0.3,0.4,0.4c0.2,0.1,0.4,0.2,0.6,0.2c0.2,0,0.4,0.1,0.7,0.1c0.2,0,0.4,0,0.5,0
		c0.2,0,0.4-0.1,0.5-0.1c0.2-0.1,0.3-0.2,0.4-0.3c0.1-0.1,0.2-0.3,0.2-0.5c0-0.3-0.1-0.5-0.3-0.6c-0.2-0.1-0.5-0.3-0.8-0.4
		c-0.3-0.1-0.7-0.2-1.1-0.2c-0.4-0.1-0.7-0.2-1.1-0.3c-0.3-0.1-0.6-0.3-0.8-0.6c-0.2-0.2-0.3-0.6-0.3-1c0-0.3,0.1-0.6,0.2-0.9
		c0.2-0.2,0.3-0.4,0.6-0.6c0.2-0.2,0.5-0.3,0.8-0.3c0.3-0.1,0.6-0.1,0.9-0.1c0.4,0,0.7,0,1,0.1c0.3,0.1,0.6,0.2,0.8,0.3
		c0.2,0.2,0.4,0.4,0.6,0.6c0.1,0.3,0.2,0.6,0.3,1H294c0-0.2-0.1-0.4-0.2-0.5c-0.1-0.1-0.2-0.3-0.4-0.3c-0.1-0.1-0.3-0.1-0.5-0.2
		c-0.2,0-0.4-0.1-0.5-0.1c-0.2,0-0.3,0-0.5,0c-0.2,0-0.3,0.1-0.5,0.1c-0.1,0.1-0.2,0.2-0.3,0.3s-0.1,0.2-0.1,0.4
		c0,0.2,0.1,0.3,0.2,0.5c0.1,0.1,0.3,0.2,0.5,0.3c0.2,0.1,0.4,0.2,0.7,0.2s0.5,0.1,0.8,0.2c0.3,0.1,0.5,0.1,0.8,0.2
		c0.3,0.1,0.5,0.2,0.7,0.3c0.2,0.1,0.4,0.3,0.5,0.5c0.1,0.2,0.2,0.5,0.2,0.8c0,0.4-0.1,0.7-0.3,1c-0.2,0.3-0.4,0.5-0.7,0.6
		c-0.3,0.2-0.6,0.3-0.9,0.3c-0.3,0.1-0.7,0.1-1,0.1c-0.4,0-0.7,0-1.1-0.1c-0.3-0.1-0.6-0.2-0.9-0.4c-0.3-0.2-0.5-0.4-0.6-0.7
		c-0.2-0.3-0.2-0.6-0.3-1.1h1.1C290.9,119.7,290.9,119.9,291,120.1z"/>
	<path class="st1" d="M301.1,121.6v-1.1h0c-0.2,0.4-0.5,0.7-0.9,0.9c-0.4,0.2-0.8,0.3-1.3,0.3c-0.4,0-0.8-0.1-1.1-0.2
		c-0.3-0.1-0.5-0.3-0.7-0.5c-0.2-0.2-0.3-0.5-0.4-0.8c-0.1-0.3-0.1-0.6-0.1-1v-4.4h1.1v4.5c0,0.4,0.1,0.7,0.4,1
		c0.2,0.2,0.6,0.4,1,0.4c0.3,0,0.6-0.1,0.9-0.2c0.2-0.1,0.4-0.2,0.6-0.4c0.2-0.2,0.3-0.4,0.4-0.7c0.1-0.3,0.1-0.5,0.1-0.8v-3.8h1.1
		v6.7H301.1z"/>
	<path class="st1" d="M305,114.9v0.9h0c0.2-0.4,0.5-0.6,0.9-0.8c0.4-0.2,0.8-0.3,1.3-0.3c0.5,0,1,0.1,1.3,0.3c0.4,0.2,0.7,0.4,1,0.8
		c0.3,0.3,0.4,0.7,0.6,1.1c0.1,0.4,0.2,0.9,0.2,1.3c0,0.5-0.1,0.9-0.2,1.3c-0.1,0.4-0.3,0.8-0.6,1.1c-0.3,0.3-0.6,0.6-1,0.7
		c-0.4,0.2-0.8,0.3-1.3,0.3c-0.2,0-0.3,0-0.5-0.1c-0.2,0-0.4-0.1-0.6-0.2c-0.2-0.1-0.4-0.2-0.6-0.3c-0.2-0.1-0.3-0.3-0.4-0.5h0v3.4
		h-1.1v-9.2H305z M308.9,117.3c-0.1-0.3-0.2-0.6-0.4-0.8c-0.2-0.2-0.4-0.4-0.6-0.6c-0.3-0.1-0.6-0.2-0.9-0.2c-0.4,0-0.7,0.1-0.9,0.2
		c-0.3,0.1-0.5,0.3-0.6,0.6c-0.2,0.2-0.3,0.5-0.4,0.8c-0.1,0.3-0.1,0.6-0.1,0.9c0,0.3,0,0.6,0.1,0.9c0.1,0.3,0.2,0.6,0.4,0.8
		c0.2,0.2,0.4,0.4,0.7,0.6c0.3,0.1,0.6,0.2,1,0.2c0.4,0,0.7-0.1,0.9-0.2c0.3-0.1,0.5-0.3,0.6-0.6c0.2-0.2,0.3-0.5,0.3-0.8
		c0.1-0.3,0.1-0.6,0.1-1C309,117.9,309,117.6,308.9,117.3z"/>
	<path class="st1" d="M312.6,114.9v0.9h0c0.2-0.4,0.5-0.6,0.9-0.8c0.4-0.2,0.8-0.3,1.3-0.3c0.5,0,1,0.1,1.3,0.3
		c0.4,0.2,0.7,0.4,1,0.8c0.3,0.3,0.4,0.7,0.6,1.1c0.1,0.4,0.2,0.9,0.2,1.3c0,0.5-0.1,0.9-0.2,1.3c-0.1,0.4-0.3,0.8-0.6,1.1
		c-0.3,0.3-0.6,0.6-1,0.7c-0.4,0.2-0.8,0.3-1.3,0.3c-0.2,0-0.3,0-0.5-0.1c-0.2,0-0.4-0.1-0.6-0.2c-0.2-0.1-0.4-0.2-0.6-0.3
		c-0.2-0.1-0.3-0.3-0.4-0.5h0v3.4h-1.1v-9.2H312.6z M316.6,117.3c-0.1-0.3-0.2-0.6-0.4-0.8c-0.2-0.2-0.4-0.4-0.6-0.6
		c-0.3-0.1-0.6-0.2-0.9-0.2c-0.4,0-0.7,0.1-0.9,0.2c-0.3,0.1-0.5,0.3-0.6,0.6c-0.2,0.2-0.3,0.5-0.4,0.8c-0.1,0.3-0.1,0.6-0.1,0.9
		c0,0.3,0,0.6,0.1,0.9s0.2,0.6,0.4,0.8s0.4,0.4,0.7,0.6s0.6,0.2,1,0.2c0.4,0,0.7-0.1,0.9-0.2c0.3-0.1,0.5-0.3,0.6-0.6
		c0.2-0.2,0.3-0.5,0.3-0.8c0.1-0.3,0.1-0.6,0.1-1C316.7,117.9,316.6,117.6,316.6,117.3z"/>
	<path class="st1" d="M320.3,112.4v9.2h-1.1v-9.2H320.3z"/>
	<path class="st1" d="M324.6,122.5c-0.1,0.3-0.3,0.6-0.4,0.8s-0.3,0.4-0.4,0.5c-0.2,0.1-0.3,0.2-0.5,0.3c-0.2,0.1-0.4,0.1-0.6,0.1
		c-0.1,0-0.3,0-0.4,0c-0.1,0-0.3,0-0.4-0.1v-1c0.1,0,0.2,0.1,0.3,0.1c0.1,0,0.2,0,0.3,0c0.2,0,0.4-0.1,0.6-0.2
		c0.2-0.1,0.3-0.3,0.3-0.5l0.5-1.1l-2.6-6.6h1.2l2,5.5h0l1.9-5.5h1.2L324.6,122.5z"/>
	<path class="st1" d="M331.9,116.9c0.1-0.4,0.3-0.8,0.6-1.1s0.6-0.6,1-0.7c0.4-0.2,0.9-0.3,1.4-0.3c0.5,0,1,0.1,1.4,0.3
		c0.4,0.2,0.7,0.4,1,0.7s0.5,0.7,0.6,1.1c0.1,0.4,0.2,0.9,0.2,1.4c0,0.5-0.1,0.9-0.2,1.4c-0.1,0.4-0.3,0.8-0.6,1.1
		c-0.3,0.3-0.6,0.6-1,0.7c-0.4,0.2-0.9,0.3-1.4,0.3c-0.5,0-1-0.1-1.4-0.3c-0.4-0.2-0.7-0.4-1-0.7c-0.3-0.3-0.5-0.7-0.6-1.1
		s-0.2-0.9-0.2-1.4C331.7,117.8,331.8,117.3,331.9,116.9z M333,119.3c0.1,0.3,0.3,0.6,0.4,0.8c0.2,0.2,0.4,0.4,0.7,0.5
		c0.3,0.1,0.5,0.2,0.8,0.2c0.3,0,0.6-0.1,0.8-0.2c0.3-0.1,0.5-0.3,0.7-0.5c0.2-0.2,0.3-0.5,0.4-0.8c0.1-0.3,0.2-0.7,0.2-1.1
		c0-0.4-0.1-0.8-0.2-1.1c-0.1-0.3-0.3-0.6-0.4-0.8c-0.2-0.2-0.4-0.4-0.7-0.5c-0.3-0.1-0.5-0.2-0.8-0.2c-0.3,0-0.6,0.1-0.8,0.2
		c-0.3,0.1-0.5,0.3-0.7,0.5c-0.2,0.2-0.3,0.5-0.4,0.8c-0.1,0.3-0.2,0.7-0.2,1.1C332.9,118.7,332.9,119,333,119.3z"/>
	<path class="st1" d="M338.8,115.9v-1h1.1v-1c0-0.5,0.2-1,0.5-1.2c0.3-0.3,0.8-0.4,1.4-0.4c0.1,0,0.2,0,0.4,0c0.1,0,0.3,0,0.4,0.1v1
		c-0.1,0-0.2-0.1-0.3-0.1c-0.1,0-0.2,0-0.3,0c-0.3,0-0.5,0.1-0.6,0.2c-0.1,0.1-0.2,0.3-0.2,0.6v0.9h1.3v1H341v5.7h-1.1v-5.7H338.8z"
		/>
	<path class="st1" d="M348.3,119.9c0.1,0.1,0.2,0.3,0.3,0.3c0.1,0.1,0.3,0.2,0.4,0.2c0.2,0,0.3,0.1,0.5,0.1c0.1,0,0.3,0,0.4,0
		c0.1,0,0.3-0.1,0.4-0.1c0.1-0.1,0.2-0.2,0.3-0.3c0.1-0.1,0.1-0.2,0.1-0.4c0-0.3-0.2-0.5-0.5-0.6c-0.4-0.1-0.9-0.3-1.5-0.4
		c-0.3-0.1-0.5-0.1-0.8-0.2c-0.3-0.1-0.5-0.2-0.7-0.3c-0.2-0.1-0.4-0.3-0.5-0.5c-0.1-0.2-0.2-0.4-0.2-0.7c0-0.4,0.1-0.8,0.3-1.1
		c0.2-0.3,0.4-0.5,0.7-0.7c0.3-0.2,0.6-0.3,0.9-0.3c0.3-0.1,0.7-0.1,1.1-0.1c0.4,0,0.7,0,1.1,0.1c0.3,0.1,0.6,0.2,0.9,0.3
		c0.3,0.2,0.5,0.4,0.7,0.7c0.2,0.3,0.3,0.6,0.3,1h-1.7c0-0.4-0.2-0.6-0.4-0.7c-0.2-0.1-0.5-0.2-0.9-0.2c-0.1,0-0.2,0-0.3,0
		c-0.1,0-0.2,0-0.3,0.1c-0.1,0-0.2,0.1-0.3,0.2c-0.1,0.1-0.1,0.2-0.1,0.3c0,0.2,0.1,0.3,0.2,0.4c0.1,0.1,0.3,0.2,0.5,0.3
		c0.2,0.1,0.4,0.1,0.7,0.2c0.2,0.1,0.5,0.1,0.8,0.2c0.3,0.1,0.5,0.1,0.8,0.2c0.3,0.1,0.5,0.2,0.7,0.3c0.2,0.1,0.4,0.3,0.5,0.5
		c0.1,0.2,0.2,0.5,0.2,0.8c0,0.4-0.1,0.8-0.3,1.1c-0.2,0.3-0.4,0.5-0.7,0.7c-0.3,0.2-0.6,0.3-1,0.4c-0.4,0.1-0.7,0.1-1.1,0.1
		c-0.4,0-0.8,0-1.1-0.1c-0.4-0.1-0.7-0.2-1-0.4c-0.3-0.2-0.5-0.4-0.7-0.7c-0.2-0.3-0.3-0.7-0.3-1.1h1.7
		C348.2,119.6,348.2,119.8,348.3,119.9z"/>
	<path class="st1" d="M357.4,114.9v1.2H356v3.3c0,0.3,0.1,0.5,0.2,0.6c0.1,0.1,0.3,0.2,0.6,0.2c0.1,0,0.2,0,0.3,0c0.1,0,0.2,0,0.3,0
		v1.4c-0.2,0-0.3,0-0.5,0.1c-0.2,0-0.4,0-0.6,0c-0.3,0-0.6,0-0.8-0.1c-0.3,0-0.5-0.1-0.7-0.2c-0.2-0.1-0.3-0.3-0.5-0.5
		c-0.1-0.2-0.2-0.5-0.2-0.8v-3.9h-1.1v-1.2h1.1v-2h1.8v2H357.4z"/>
	<path class="st1" d="M358.2,117c0-0.4,0.1-0.8,0.3-1.1c0.2-0.3,0.4-0.5,0.7-0.7c0.3-0.2,0.6-0.3,1-0.4c0.4-0.1,0.7-0.1,1.1-0.1
		c0.3,0,0.7,0,1,0.1c0.3,0,0.7,0.1,0.9,0.3c0.3,0.1,0.5,0.3,0.7,0.6c0.2,0.2,0.3,0.6,0.3,1v3.5c0,0.3,0,0.6,0.1,0.9
		c0,0.3,0.1,0.5,0.2,0.6h-1.9c0-0.1-0.1-0.2-0.1-0.3c0-0.1,0-0.2,0-0.3c-0.3,0.3-0.6,0.5-1,0.6c-0.4,0.1-0.8,0.2-1.2,0.2
		c-0.3,0-0.6,0-0.9-0.1c-0.3-0.1-0.5-0.2-0.7-0.4c-0.2-0.2-0.4-0.4-0.5-0.6c-0.1-0.2-0.2-0.5-0.2-0.9c0-0.4,0.1-0.7,0.2-0.9
		c0.1-0.2,0.3-0.4,0.5-0.6c0.2-0.1,0.5-0.3,0.7-0.3c0.3-0.1,0.5-0.1,0.8-0.2c0.3,0,0.5-0.1,0.8-0.1c0.3,0,0.5-0.1,0.7-0.1
		c0.2-0.1,0.4-0.1,0.5-0.2c0.1-0.1,0.2-0.2,0.2-0.4c0-0.2,0-0.4-0.1-0.5c-0.1-0.1-0.2-0.2-0.3-0.3c-0.1-0.1-0.2-0.1-0.4-0.1
		c-0.1,0-0.3,0-0.5,0c-0.4,0-0.6,0.1-0.9,0.2s-0.3,0.4-0.4,0.8H358.2z M362.4,118.3c-0.1,0.1-0.2,0.1-0.3,0.2
		c-0.1,0-0.2,0.1-0.4,0.1c-0.1,0-0.3,0-0.4,0.1c-0.1,0-0.3,0-0.4,0.1c-0.1,0-0.3,0.1-0.4,0.1c-0.1,0-0.2,0.1-0.3,0.2
		c-0.1,0.1-0.2,0.2-0.2,0.3c-0.1,0.1-0.1,0.3-0.1,0.4c0,0.2,0,0.3,0.1,0.4c0.1,0.1,0.1,0.2,0.2,0.3s0.2,0.1,0.4,0.1
		c0.1,0,0.3,0,0.4,0c0.4,0,0.6-0.1,0.8-0.2c0.2-0.1,0.3-0.3,0.4-0.4c0.1-0.2,0.2-0.3,0.2-0.5c0-0.2,0-0.3,0-0.4V118.3z"/>
	<path class="st1" d="M365.7,113.9v-1.5h1.8v1.5H365.7z M367.5,114.9v6.7h-1.8v-6.7H367.5z"/>
	<path class="st1" d="M370.7,114.9v0.9h0c0.2-0.4,0.5-0.7,0.9-0.8c0.4-0.2,0.7-0.3,1.1-0.3c0.5,0,0.9,0.1,1.2,0.2
		c0.3,0.1,0.6,0.3,0.7,0.6c0.2,0.2,0.3,0.5,0.4,0.9c0.1,0.3,0.1,0.7,0.1,1.1v4.1h-1.8v-3.8c0-0.6-0.1-1-0.3-1.2
		c-0.2-0.3-0.5-0.4-0.9-0.4c-0.5,0-0.9,0.1-1.1,0.4c-0.2,0.3-0.3,0.8-0.3,1.5v3.5H369v-6.7H370.7z"/>
	<path class="st1" d="M378.5,112.4v9.2h-1.8v-9.2H378.5z"/>
	<path class="st1" d="M381.9,120c0.3,0.3,0.7,0.4,1.2,0.4c0.4,0,0.7-0.1,1-0.3c0.3-0.2,0.4-0.4,0.5-0.6h1.6
		c-0.3,0.8-0.7,1.4-1.2,1.7c-0.5,0.3-1.2,0.5-1.9,0.5c-0.5,0-1-0.1-1.4-0.3c-0.4-0.2-0.8-0.4-1.1-0.7c-0.3-0.3-0.5-0.7-0.7-1.1
		c-0.2-0.4-0.2-0.9-0.2-1.4c0-0.5,0.1-1,0.2-1.4c0.2-0.4,0.4-0.8,0.7-1.1c0.3-0.3,0.7-0.6,1.1-0.7c0.4-0.2,0.9-0.3,1.4-0.3
		c0.6,0,1.1,0.1,1.5,0.3c0.4,0.2,0.8,0.5,1,0.9c0.3,0.4,0.5,0.8,0.6,1.3c0.1,0.5,0.2,1,0.1,1.5h-4.8
		C381.5,119.3,381.7,119.7,381.9,120z M384,116.5c-0.2-0.2-0.6-0.4-1-0.4c-0.3,0-0.5,0-0.7,0.1c-0.2,0.1-0.3,0.2-0.5,0.4
		c-0.1,0.1-0.2,0.3-0.2,0.5c0,0.2-0.1,0.3-0.1,0.4h3C384.4,117.1,384.2,116.7,384,116.5z"/>
	<path class="st1" d="M388.9,119.9c0.1,0.1,0.2,0.3,0.3,0.3c0.1,0.1,0.3,0.2,0.4,0.2c0.2,0,0.3,0.1,0.5,0.1c0.1,0,0.3,0,0.4,0
		c0.1,0,0.3-0.1,0.4-0.1c0.1-0.1,0.2-0.2,0.3-0.3c0.1-0.1,0.1-0.2,0.1-0.4c0-0.3-0.2-0.5-0.5-0.6c-0.4-0.1-0.9-0.3-1.5-0.4
		c-0.3-0.1-0.5-0.1-0.8-0.2c-0.3-0.1-0.5-0.2-0.7-0.3c-0.2-0.1-0.4-0.3-0.5-0.5c-0.1-0.2-0.2-0.4-0.2-0.7c0-0.4,0.1-0.8,0.3-1.1
		c0.2-0.3,0.4-0.5,0.7-0.7c0.3-0.2,0.6-0.3,0.9-0.3c0.3-0.1,0.7-0.1,1.1-0.1c0.4,0,0.7,0,1.1,0.1c0.3,0.1,0.6,0.2,0.9,0.3
		c0.3,0.2,0.5,0.4,0.7,0.7c0.2,0.3,0.3,0.6,0.3,1h-1.7c0-0.4-0.2-0.6-0.4-0.7c-0.2-0.1-0.5-0.2-0.9-0.2c-0.1,0-0.2,0-0.3,0
		c-0.1,0-0.2,0-0.3,0.1c-0.1,0-0.2,0.1-0.3,0.2c-0.1,0.1-0.1,0.2-0.1,0.3c0,0.2,0.1,0.3,0.2,0.4c0.1,0.1,0.3,0.2,0.5,0.3
		c0.2,0.1,0.4,0.1,0.7,0.2c0.2,0.1,0.5,0.1,0.8,0.2c0.3,0.1,0.5,0.1,0.8,0.2c0.3,0.1,0.5,0.2,0.7,0.3s0.4,0.3,0.5,0.5
		s0.2,0.5,0.2,0.8c0,0.4-0.1,0.8-0.3,1.1c-0.2,0.3-0.4,0.5-0.7,0.7c-0.3,0.2-0.6,0.3-1,0.4c-0.4,0.1-0.7,0.1-1.1,0.1
		c-0.4,0-0.8,0-1.1-0.1c-0.4-0.1-0.7-0.2-1-0.4c-0.3-0.2-0.5-0.4-0.7-0.7c-0.2-0.3-0.3-0.7-0.3-1.1h1.7
		C388.8,119.6,388.9,119.8,388.9,119.9z"/>
	<path class="st1" d="M395.9,119.9c0.1,0.1,0.2,0.3,0.3,0.3c0.1,0.1,0.3,0.2,0.4,0.2c0.2,0,0.3,0.1,0.5,0.1c0.1,0,0.3,0,0.4,0
		c0.1,0,0.3-0.1,0.4-0.1c0.1-0.1,0.2-0.2,0.3-0.3c0.1-0.1,0.1-0.2,0.1-0.4c0-0.3-0.2-0.5-0.5-0.6c-0.4-0.1-0.9-0.3-1.5-0.4
		c-0.3-0.1-0.5-0.1-0.8-0.2c-0.3-0.1-0.5-0.2-0.7-0.3c-0.2-0.1-0.4-0.3-0.5-0.5c-0.1-0.2-0.2-0.4-0.2-0.7c0-0.4,0.1-0.8,0.3-1.1
		c0.2-0.3,0.4-0.5,0.7-0.7c0.3-0.2,0.6-0.3,0.9-0.3c0.3-0.1,0.7-0.1,1.1-0.1c0.4,0,0.7,0,1.1,0.1c0.3,0.1,0.6,0.2,0.9,0.3
		c0.3,0.2,0.5,0.4,0.7,0.7c0.2,0.3,0.3,0.6,0.3,1h-1.7c0-0.4-0.2-0.6-0.4-0.7c-0.2-0.1-0.5-0.2-0.9-0.2c-0.1,0-0.2,0-0.3,0
		c-0.1,0-0.2,0-0.3,0.1c-0.1,0-0.2,0.1-0.3,0.2c-0.1,0.1-0.1,0.2-0.1,0.3c0,0.2,0.1,0.3,0.2,0.4c0.1,0.1,0.3,0.2,0.5,0.3
		c0.2,0.1,0.4,0.1,0.7,0.2c0.2,0.1,0.5,0.1,0.8,0.2c0.3,0.1,0.5,0.1,0.8,0.2c0.3,0.1,0.5,0.2,0.7,0.3s0.4,0.3,0.5,0.5
		c0.1,0.2,0.2,0.5,0.2,0.8c0,0.4-0.1,0.8-0.3,1.1c-0.2,0.3-0.4,0.5-0.7,0.7c-0.3,0.2-0.6,0.3-1,0.4c-0.4,0.1-0.7,0.1-1.1,0.1
		c-0.4,0-0.8,0-1.1-0.1c-0.4-0.1-0.7-0.2-1-0.4c-0.3-0.2-0.5-0.4-0.7-0.7c-0.2-0.3-0.3-0.7-0.3-1.1h1.7
		C395.7,119.6,395.8,119.8,395.9,119.9z"/>
	<path class="st1" d="M406.4,119.9c0.1,0.1,0.2,0.3,0.3,0.3c0.1,0.1,0.3,0.2,0.4,0.2c0.2,0,0.3,0.1,0.5,0.1c0.1,0,0.3,0,0.4,0
		c0.1,0,0.3-0.1,0.4-0.1c0.1-0.1,0.2-0.2,0.3-0.3c0.1-0.1,0.1-0.2,0.1-0.4c0-0.3-0.2-0.5-0.5-0.6c-0.4-0.1-0.9-0.3-1.5-0.4
		c-0.3-0.1-0.5-0.1-0.8-0.2c-0.3-0.1-0.5-0.2-0.7-0.3c-0.2-0.1-0.4-0.3-0.5-0.5c-0.1-0.2-0.2-0.4-0.2-0.7c0-0.4,0.1-0.8,0.3-1.1
		c0.2-0.3,0.4-0.5,0.7-0.7c0.3-0.2,0.6-0.3,0.9-0.3c0.3-0.1,0.7-0.1,1.1-0.1c0.4,0,0.7,0,1.1,0.1c0.3,0.1,0.6,0.2,0.9,0.3
		c0.3,0.2,0.5,0.4,0.7,0.7c0.2,0.3,0.3,0.6,0.3,1h-1.7c0-0.4-0.2-0.6-0.4-0.7c-0.2-0.1-0.5-0.2-0.9-0.2c-0.1,0-0.2,0-0.3,0
		c-0.1,0-0.2,0-0.3,0.1c-0.1,0-0.2,0.1-0.3,0.2c-0.1,0.1-0.1,0.2-0.1,0.3c0,0.2,0.1,0.3,0.2,0.4c0.1,0.1,0.3,0.2,0.5,0.3
		c0.2,0.1,0.4,0.1,0.7,0.2c0.2,0.1,0.5,0.1,0.8,0.2c0.3,0.1,0.5,0.1,0.8,0.2c0.3,0.1,0.5,0.2,0.7,0.3s0.4,0.3,0.5,0.5
		s0.2,0.5,0.2,0.8c0,0.4-0.1,0.8-0.3,1.1c-0.2,0.3-0.4,0.5-0.7,0.7c-0.3,0.2-0.6,0.3-1,0.4c-0.4,0.1-0.7,0.1-1.1,0.1
		c-0.4,0-0.8,0-1.1-0.1c-0.4-0.1-0.7-0.2-1-0.4c-0.3-0.2-0.5-0.4-0.7-0.7c-0.2-0.3-0.3-0.7-0.3-1.1h1.7
		C406.3,119.6,406.3,119.8,406.4,119.9z"/>
	<path class="st1" d="M415.5,114.9v1.2h-1.3v3.3c0,0.3,0.1,0.5,0.2,0.6c0.1,0.1,0.3,0.2,0.6,0.2c0.1,0,0.2,0,0.3,0
		c0.1,0,0.2,0,0.3,0v1.4c-0.2,0-0.3,0-0.5,0.1c-0.2,0-0.4,0-0.6,0c-0.3,0-0.6,0-0.8-0.1c-0.3,0-0.5-0.1-0.7-0.2
		c-0.2-0.1-0.3-0.3-0.5-0.5s-0.2-0.5-0.2-0.8v-3.9h-1.1v-1.2h1.1v-2h1.8v2H415.5z"/>
	<path class="st1" d="M418.3,120c0.3,0.3,0.7,0.4,1.2,0.4c0.4,0,0.7-0.1,1-0.3s0.4-0.4,0.5-0.6h1.6c-0.3,0.8-0.7,1.4-1.2,1.7
		c-0.5,0.3-1.2,0.5-1.9,0.5c-0.5,0-1-0.1-1.4-0.3c-0.4-0.2-0.8-0.4-1.1-0.7c-0.3-0.3-0.5-0.7-0.7-1.1c-0.2-0.4-0.2-0.9-0.2-1.4
		c0-0.5,0.1-1,0.2-1.4c0.2-0.4,0.4-0.8,0.7-1.1c0.3-0.3,0.7-0.6,1.1-0.7c0.4-0.2,0.9-0.3,1.4-0.3c0.6,0,1.1,0.1,1.5,0.3
		c0.4,0.2,0.8,0.5,1,0.9c0.3,0.4,0.5,0.8,0.6,1.3c0.1,0.5,0.2,1,0.1,1.5h-4.8C417.9,119.3,418,119.7,418.3,120z M420.4,116.5
		c-0.2-0.2-0.6-0.4-1-0.4c-0.3,0-0.5,0-0.7,0.1c-0.2,0.1-0.3,0.2-0.5,0.4c-0.1,0.1-0.2,0.3-0.2,0.5c0,0.2-0.1,0.3-0.1,0.4h3
		C420.7,117.1,420.6,116.7,420.4,116.5z"/>
	<path class="st1" d="M425.7,120c0.3,0.3,0.7,0.4,1.2,0.4c0.4,0,0.7-0.1,1-0.3c0.3-0.2,0.4-0.4,0.5-0.6h1.6
		c-0.3,0.8-0.7,1.4-1.2,1.7c-0.5,0.3-1.2,0.5-1.9,0.5c-0.5,0-1-0.1-1.4-0.3c-0.4-0.2-0.8-0.4-1.1-0.7c-0.3-0.3-0.5-0.7-0.7-1.1
		c-0.2-0.4-0.2-0.9-0.2-1.4c0-0.5,0.1-1,0.2-1.4c0.2-0.4,0.4-0.8,0.7-1.1c0.3-0.3,0.7-0.6,1.1-0.7c0.4-0.2,0.9-0.3,1.4-0.3
		c0.6,0,1.1,0.1,1.5,0.3c0.4,0.2,0.8,0.5,1,0.9c0.3,0.4,0.5,0.8,0.6,1.3c0.1,0.5,0.2,1,0.1,1.5h-4.8
		C425.3,119.3,425.4,119.7,425.7,120z M427.8,116.5c-0.2-0.2-0.6-0.4-1-0.4c-0.3,0-0.5,0-0.7,0.1c-0.2,0.1-0.3,0.2-0.5,0.4
		c-0.1,0.1-0.2,0.3-0.2,0.5c0,0.2-0.1,0.3-0.1,0.4h3C428.2,117.1,428,116.7,427.8,116.5z"/>
	<path class="st1" d="M433.1,112.4v9.2h-1.8v-9.2H433.1z"/>
	<path class="st1" d="M439.8,114.9v0.9h0c0.2-0.4,0.5-0.6,0.9-0.8c0.3-0.2,0.7-0.2,1.1-0.2c0.5,0,1,0.1,1.4,0.3
		c0.4,0.2,0.7,0.5,0.9,0.8c0.2,0.3,0.4,0.7,0.6,1.1c0.1,0.4,0.2,0.9,0.2,1.4c0,0.4-0.1,0.9-0.2,1.3c-0.1,0.4-0.3,0.8-0.5,1.1
		c-0.2,0.3-0.6,0.6-0.9,0.8c-0.4,0.2-0.8,0.3-1.3,0.3c-0.4,0-0.8-0.1-1.1-0.3c-0.3-0.2-0.6-0.4-0.9-0.7h0v3.2h-1.8v-9H439.8z
		 M442.2,120.2c0.2-0.1,0.4-0.3,0.5-0.5c0.1-0.2,0.2-0.4,0.3-0.7c0.1-0.3,0.1-0.5,0.1-0.8c0-0.3,0-0.5-0.1-0.8
		c-0.1-0.3-0.1-0.5-0.3-0.7c-0.1-0.2-0.3-0.4-0.5-0.5c-0.2-0.1-0.5-0.2-0.7-0.2c-0.3,0-0.6,0.1-0.8,0.2c-0.2,0.1-0.4,0.3-0.5,0.5
		c-0.1,0.2-0.2,0.4-0.3,0.7c-0.1,0.3-0.1,0.5-0.1,0.8c0,0.3,0,0.5,0.1,0.8c0.1,0.3,0.1,0.5,0.3,0.7c0.1,0.2,0.3,0.4,0.5,0.5
		c0.2,0.1,0.5,0.2,0.7,0.2C441.8,120.4,442,120.3,442.2,120.2z"/>
	<path class="st1" d="M446,113.9v-1.5h1.8v1.5H446z M447.9,114.9v6.7H446v-6.7H447.9z"/>
	<path class="st1" d="M451.1,114.9v0.9h0c0.2-0.4,0.5-0.6,0.9-0.8c0.3-0.2,0.7-0.2,1.1-0.2c0.5,0,1,0.1,1.4,0.3
		c0.4,0.2,0.7,0.5,0.9,0.8c0.2,0.3,0.4,0.7,0.6,1.1c0.1,0.4,0.2,0.9,0.2,1.4c0,0.4-0.1,0.9-0.2,1.3c-0.1,0.4-0.3,0.8-0.5,1.1
		c-0.2,0.3-0.6,0.6-0.9,0.8c-0.4,0.2-0.8,0.3-1.3,0.3c-0.4,0-0.8-0.1-1.1-0.3c-0.3-0.2-0.6-0.4-0.9-0.7h0v3.2h-1.8v-9H451.1z
		 M453.4,120.2c0.2-0.1,0.4-0.3,0.5-0.5c0.1-0.2,0.2-0.4,0.3-0.7c0.1-0.3,0.1-0.5,0.1-0.8c0-0.3,0-0.5-0.1-0.8
		c-0.1-0.3-0.1-0.5-0.3-0.7c-0.1-0.2-0.3-0.4-0.5-0.5c-0.2-0.1-0.5-0.2-0.7-0.2c-0.3,0-0.6,0.1-0.8,0.2c-0.2,0.1-0.4,0.3-0.5,0.5
		c-0.1,0.2-0.2,0.4-0.3,0.7c-0.1,0.3-0.1,0.5-0.1,0.8c0,0.3,0,0.5,0.1,0.8c0.1,0.3,0.1,0.5,0.3,0.7c0.1,0.2,0.3,0.4,0.5,0.5
		c0.2,0.1,0.5,0.2,0.7,0.2C453,120.4,453.2,120.3,453.4,120.2z"/>
	<path class="st1" d="M457.3,113.9v-1.5h1.8v1.5H457.3z M459.1,114.9v6.7h-1.8v-6.7H459.1z"/>
	<path class="st1" d="M462.3,114.9v0.9h0c0.2-0.4,0.5-0.7,0.9-0.8c0.4-0.2,0.7-0.3,1.1-0.3c0.5,0,0.9,0.1,1.2,0.2
		c0.3,0.1,0.6,0.3,0.7,0.6c0.2,0.2,0.3,0.5,0.4,0.9c0.1,0.3,0.1,0.7,0.1,1.1v4.1H465v-3.8c0-0.6-0.1-1-0.3-1.2
		c-0.2-0.3-0.5-0.4-0.9-0.4c-0.5,0-0.9,0.1-1.1,0.4c-0.2,0.3-0.3,0.8-0.3,1.5v3.5h-1.8v-6.7H462.3z"/>
	<path class="st1" d="M474.5,122.1c-0.1,0.3-0.2,0.7-0.5,1c-0.2,0.3-0.6,0.5-1,0.8c-0.5,0.2-1.1,0.3-1.8,0.3c-0.3,0-0.7,0-1-0.1
		c-0.3-0.1-0.7-0.2-0.9-0.4s-0.5-0.4-0.7-0.7c-0.2-0.3-0.3-0.6-0.3-1h1.8c0.1,0.3,0.3,0.6,0.5,0.7c0.2,0.1,0.5,0.2,0.9,0.2
		c0.5,0,0.9-0.2,1.1-0.5c0.2-0.3,0.4-0.7,0.3-1.2v-0.9h0c-0.2,0.4-0.5,0.6-0.8,0.8c-0.4,0.2-0.8,0.3-1.2,0.3c-0.5,0-0.9-0.1-1.3-0.3
		c-0.4-0.2-0.7-0.4-0.9-0.7c-0.2-0.3-0.4-0.7-0.5-1.1c-0.1-0.4-0.2-0.8-0.2-1.3c0-0.4,0.1-0.8,0.2-1.2s0.3-0.8,0.5-1.1
		c0.2-0.3,0.5-0.5,0.9-0.7c0.4-0.2,0.8-0.3,1.2-0.3c0.4,0,0.8,0.1,1.2,0.2c0.3,0.2,0.6,0.4,0.8,0.8h0v-0.9h1.7v6.3
		C474.6,121.4,474.6,121.7,474.5,122.1z M472,119.9c0.2-0.1,0.4-0.2,0.5-0.4c0.1-0.2,0.2-0.4,0.3-0.6c0.1-0.2,0.1-0.4,0.1-0.7
		c0-0.3,0-0.5-0.1-0.8c-0.1-0.2-0.1-0.5-0.3-0.7c-0.1-0.2-0.3-0.3-0.5-0.5c-0.2-0.1-0.4-0.2-0.7-0.2c-0.3,0-0.5,0.1-0.7,0.2
		c-0.2,0.1-0.3,0.2-0.5,0.4c-0.1,0.2-0.2,0.4-0.3,0.6c-0.1,0.2-0.1,0.5-0.1,0.7c0,0.2,0,0.5,0.1,0.7c0,0.2,0.1,0.4,0.2,0.6
		c0.1,0.2,0.3,0.3,0.5,0.5c0.2,0.1,0.4,0.2,0.7,0.2C471.6,120,471.8,120,472,119.9z"/>
	<path class="st1" d="M481.2,119.9c0.1,0.1,0.2,0.3,0.3,0.3c0.1,0.1,0.3,0.2,0.4,0.2c0.2,0,0.3,0.1,0.5,0.1c0.1,0,0.3,0,0.4,0
		c0.1,0,0.3-0.1,0.4-0.1c0.1-0.1,0.2-0.2,0.3-0.3c0.1-0.1,0.1-0.2,0.1-0.4c0-0.3-0.2-0.5-0.5-0.6c-0.4-0.1-0.9-0.3-1.5-0.4
		c-0.3-0.1-0.5-0.1-0.8-0.2c-0.3-0.1-0.5-0.2-0.7-0.3c-0.2-0.1-0.4-0.3-0.5-0.5c-0.1-0.2-0.2-0.4-0.2-0.7c0-0.4,0.1-0.8,0.3-1.1
		c0.2-0.3,0.4-0.5,0.7-0.7c0.3-0.2,0.6-0.3,0.9-0.3c0.3-0.1,0.7-0.1,1.1-0.1c0.4,0,0.7,0,1.1,0.1c0.3,0.1,0.6,0.2,0.9,0.3
		c0.3,0.2,0.5,0.4,0.7,0.7c0.2,0.3,0.3,0.6,0.3,1h-1.7c0-0.4-0.2-0.6-0.4-0.7c-0.2-0.1-0.5-0.2-0.9-0.2c-0.1,0-0.2,0-0.3,0
		c-0.1,0-0.2,0-0.3,0.1c-0.1,0-0.2,0.1-0.3,0.2c-0.1,0.1-0.1,0.2-0.1,0.3c0,0.2,0.1,0.3,0.2,0.4c0.1,0.1,0.3,0.2,0.5,0.3
		c0.2,0.1,0.4,0.1,0.7,0.2c0.2,0.1,0.5,0.1,0.8,0.2c0.3,0.1,0.5,0.1,0.8,0.2c0.3,0.1,0.5,0.2,0.7,0.3s0.4,0.3,0.5,0.5
		s0.2,0.5,0.2,0.8c0,0.4-0.1,0.8-0.3,1.1c-0.2,0.3-0.4,0.5-0.7,0.7c-0.3,0.2-0.6,0.3-1,0.4c-0.4,0.1-0.7,0.1-1.1,0.1
		c-0.4,0-0.8,0-1.1-0.1c-0.4-0.1-0.7-0.2-1-0.4c-0.3-0.2-0.5-0.4-0.7-0.7c-0.2-0.3-0.3-0.7-0.3-1.1h1.7
		C481.1,119.6,481.1,119.8,481.2,119.9z"/>
	<path class="st1" d="M489.1,123.6c-0.4,0.2-0.8,0.3-1.5,0.3c-0.2,0-0.4,0-0.6,0s-0.4,0-0.6,0v-1.5c0.2,0,0.3,0,0.5,0.1
		c0.2,0,0.4,0,0.5,0c0.2,0,0.4-0.1,0.5-0.3c0.1-0.2,0.2-0.3,0.2-0.5c0-0.1,0-0.3-0.1-0.4l-2.3-6.3h2l1.5,4.6h0l1.5-4.6h1.9l-2.8,7.5
		C489.7,123,489.4,123.4,489.1,123.6z"/>
	<path class="st1" d="M494.9,119.9c0.1,0.1,0.2,0.3,0.3,0.3c0.1,0.1,0.3,0.2,0.4,0.2c0.2,0,0.3,0.1,0.5,0.1c0.1,0,0.3,0,0.4,0
		c0.1,0,0.3-0.1,0.4-0.1c0.1-0.1,0.2-0.2,0.3-0.3c0.1-0.1,0.1-0.2,0.1-0.4c0-0.3-0.2-0.5-0.5-0.6c-0.4-0.1-0.9-0.3-1.5-0.4
		c-0.3-0.1-0.5-0.1-0.8-0.2c-0.3-0.1-0.5-0.2-0.7-0.3c-0.2-0.1-0.4-0.3-0.5-0.5c-0.1-0.2-0.2-0.4-0.2-0.7c0-0.4,0.1-0.8,0.3-1.1
		c0.2-0.3,0.4-0.5,0.7-0.7c0.3-0.2,0.6-0.3,0.9-0.3c0.3-0.1,0.7-0.1,1.1-0.1c0.4,0,0.7,0,1.1,0.1c0.3,0.1,0.6,0.2,0.9,0.3
		c0.3,0.2,0.5,0.4,0.7,0.7c0.2,0.3,0.3,0.6,0.3,1h-1.7c0-0.4-0.2-0.6-0.4-0.7c-0.2-0.1-0.5-0.2-0.9-0.2c-0.1,0-0.2,0-0.3,0
		c-0.1,0-0.2,0-0.3,0.1c-0.1,0-0.2,0.1-0.3,0.2c-0.1,0.1-0.1,0.2-0.1,0.3c0,0.2,0.1,0.3,0.2,0.4c0.1,0.1,0.3,0.2,0.5,0.3
		c0.2,0.1,0.4,0.1,0.7,0.2c0.2,0.1,0.5,0.1,0.8,0.2c0.3,0.1,0.5,0.1,0.8,0.2c0.3,0.1,0.5,0.2,0.7,0.3s0.4,0.3,0.5,0.5
		c0.1,0.2,0.2,0.5,0.2,0.8c0,0.4-0.1,0.8-0.3,1.1c-0.2,0.3-0.4,0.5-0.7,0.7c-0.3,0.2-0.6,0.3-1,0.4c-0.4,0.1-0.7,0.1-1.1,0.1
		c-0.4,0-0.8,0-1.1-0.1c-0.4-0.1-0.7-0.2-1-0.4c-0.3-0.2-0.5-0.4-0.7-0.7c-0.2-0.3-0.3-0.7-0.3-1.1h1.7
		C494.7,119.6,494.8,119.8,494.9,119.9z"/>
	<path class="st1" d="M503.9,114.9v1.2h-1.3v3.3c0,0.3,0.1,0.5,0.2,0.6c0.1,0.1,0.3,0.2,0.6,0.2c0.1,0,0.2,0,0.3,0
		c0.1,0,0.2,0,0.3,0v1.4c-0.2,0-0.3,0-0.5,0.1c-0.2,0-0.4,0-0.6,0c-0.3,0-0.6,0-0.8-0.1c-0.3,0-0.5-0.1-0.7-0.2
		c-0.2-0.1-0.3-0.3-0.5-0.5c-0.1-0.2-0.2-0.5-0.2-0.8v-3.9h-1.1v-1.2h1.1v-2h1.8v2H503.9z"/>
	<path class="st1" d="M506.8,120c0.3,0.3,0.7,0.4,1.2,0.4c0.4,0,0.7-0.1,1-0.3c0.3-0.2,0.4-0.4,0.5-0.6h1.6
		c-0.3,0.8-0.7,1.4-1.2,1.7c-0.5,0.3-1.2,0.5-1.9,0.5c-0.5,0-1-0.1-1.4-0.3c-0.4-0.2-0.8-0.4-1.1-0.7c-0.3-0.3-0.5-0.7-0.7-1.1
		c-0.2-0.4-0.2-0.9-0.2-1.4c0-0.5,0.1-1,0.2-1.4c0.2-0.4,0.4-0.8,0.7-1.1c0.3-0.3,0.7-0.6,1.1-0.7c0.4-0.2,0.9-0.3,1.4-0.3
		c0.6,0,1.1,0.1,1.5,0.3c0.4,0.2,0.8,0.5,1,0.9c0.3,0.4,0.5,0.8,0.6,1.3c0.1,0.5,0.2,1,0.1,1.5h-4.8
		C506.3,119.3,506.5,119.7,506.8,120z M508.8,116.5c-0.2-0.2-0.6-0.4-1-0.4c-0.3,0-0.5,0-0.7,0.1c-0.2,0.1-0.3,0.2-0.5,0.4
		c-0.1,0.1-0.2,0.3-0.2,0.5c0,0.2-0.1,0.3-0.1,0.4h3C509.2,117.1,509.1,116.7,508.8,116.5z"/>
	<path class="st1" d="M514,114.9v0.9h0c0.2-0.3,0.5-0.6,0.9-0.8c0.3-0.2,0.7-0.3,1.2-0.3c0.4,0,0.8,0.1,1.2,0.2
		c0.3,0.2,0.6,0.5,0.8,0.9c0.2-0.3,0.5-0.6,0.8-0.8c0.3-0.2,0.7-0.3,1.2-0.3c0.4,0,0.7,0,1,0.1c0.3,0.1,0.6,0.2,0.8,0.4
		c0.2,0.2,0.4,0.4,0.5,0.7c0.1,0.3,0.2,0.7,0.2,1.1v4.5h-1.8v-3.8c0-0.2,0-0.4,0-0.6c0-0.2-0.1-0.4-0.1-0.5
		c-0.1-0.1-0.2-0.3-0.3-0.3c-0.2-0.1-0.4-0.1-0.6-0.1c-0.3,0-0.5,0-0.6,0.1c-0.2,0.1-0.3,0.2-0.4,0.4c-0.1,0.2-0.2,0.3-0.2,0.5
		s0,0.4,0,0.6v3.7h-1.8v-3.7c0-0.2,0-0.4,0-0.6c0-0.2,0-0.4-0.1-0.5c-0.1-0.2-0.2-0.3-0.3-0.4c-0.2-0.1-0.4-0.1-0.7-0.1
		c-0.1,0-0.2,0-0.3,0.1c-0.1,0-0.3,0.1-0.4,0.2c-0.1,0.1-0.2,0.3-0.3,0.5s-0.1,0.5-0.1,0.8v3.9h-1.8v-6.7H514z"/>
	<path class="st1" d="M525.5,119.9c0.1,0.1,0.2,0.3,0.3,0.3c0.1,0.1,0.3,0.2,0.4,0.2c0.2,0,0.3,0.1,0.5,0.1c0.1,0,0.3,0,0.4,0
		c0.1,0,0.3-0.1,0.4-0.1c0.1-0.1,0.2-0.2,0.3-0.3c0.1-0.1,0.1-0.2,0.1-0.4c0-0.3-0.2-0.5-0.5-0.6c-0.4-0.1-0.9-0.3-1.5-0.4
		c-0.3-0.1-0.5-0.1-0.8-0.2c-0.3-0.1-0.5-0.2-0.7-0.3c-0.2-0.1-0.4-0.3-0.5-0.5c-0.1-0.2-0.2-0.4-0.2-0.7c0-0.4,0.1-0.8,0.3-1.1
		c0.2-0.3,0.4-0.5,0.7-0.7c0.3-0.2,0.6-0.3,0.9-0.3c0.3-0.1,0.7-0.1,1.1-0.1c0.4,0,0.7,0,1.1,0.1c0.3,0.1,0.6,0.2,0.9,0.3
		c0.3,0.2,0.5,0.4,0.7,0.7c0.2,0.3,0.3,0.6,0.3,1h-1.7c0-0.4-0.2-0.6-0.4-0.7c-0.2-0.1-0.5-0.2-0.9-0.2c-0.1,0-0.2,0-0.3,0
		c-0.1,0-0.2,0-0.3,0.1c-0.1,0-0.2,0.1-0.3,0.2c-0.1,0.1-0.1,0.2-0.1,0.3c0,0.2,0.1,0.3,0.2,0.4c0.1,0.1,0.3,0.2,0.5,0.3
		c0.2,0.1,0.4,0.1,0.7,0.2c0.2,0.1,0.5,0.1,0.8,0.2c0.3,0.1,0.5,0.1,0.8,0.2c0.3,0.1,0.5,0.2,0.7,0.3s0.4,0.3,0.5,0.5
		s0.2,0.5,0.2,0.8c0,0.4-0.1,0.8-0.3,1.1c-0.2,0.3-0.4,0.5-0.7,0.7c-0.3,0.2-0.6,0.3-1,0.4c-0.4,0.1-0.7,0.1-1.1,0.1
		c-0.4,0-0.8,0-1.1-0.1c-0.4-0.1-0.7-0.2-1-0.4c-0.3-0.2-0.5-0.4-0.7-0.7c-0.2-0.3-0.3-0.7-0.3-1.1h1.7
		C525.3,119.6,525.4,119.8,525.5,119.9z"/>
	<path class="st1" d="M537.4,114.9v1h-1.3v4.1c0,0.1,0,0.2,0,0.3c0,0.1,0.1,0.1,0.1,0.2c0.1,0,0.1,0.1,0.3,0.1c0.1,0,0.2,0,0.4,0
		h0.5v1h-0.8c-0.3,0-0.5,0-0.7-0.1c-0.2,0-0.4-0.1-0.5-0.2c-0.1-0.1-0.2-0.2-0.3-0.4c-0.1-0.2-0.1-0.4-0.1-0.7v-4.2h-1.1v-1h1.1v-2
		h1.1v2H537.4z"/>
	<path class="st1" d="M538.5,116.9c0.1-0.4,0.3-0.8,0.6-1.1s0.6-0.6,1-0.7c0.4-0.2,0.9-0.3,1.4-0.3c0.5,0,1,0.1,1.4,0.3
		c0.4,0.2,0.7,0.4,1,0.7s0.5,0.7,0.6,1.1c0.1,0.4,0.2,0.9,0.2,1.4c0,0.5-0.1,0.9-0.2,1.4c-0.1,0.4-0.3,0.8-0.6,1.1
		c-0.3,0.3-0.6,0.6-1,0.7c-0.4,0.2-0.9,0.3-1.4,0.3c-0.5,0-1-0.1-1.4-0.3c-0.4-0.2-0.7-0.4-1-0.7c-0.3-0.3-0.5-0.7-0.6-1.1
		s-0.2-0.9-0.2-1.4C538.3,117.8,538.4,117.3,538.5,116.9z M539.6,119.3c0.1,0.3,0.3,0.6,0.4,0.8c0.2,0.2,0.4,0.4,0.7,0.5
		c0.3,0.1,0.5,0.2,0.8,0.2c0.3,0,0.6-0.1,0.8-0.2c0.3-0.1,0.5-0.3,0.7-0.5c0.2-0.2,0.3-0.5,0.4-0.8c0.1-0.3,0.2-0.7,0.2-1.1
		c0-0.4-0.1-0.8-0.2-1.1s-0.3-0.6-0.4-0.8c-0.2-0.2-0.4-0.4-0.7-0.5c-0.3-0.1-0.5-0.2-0.8-0.2c-0.3,0-0.6,0.1-0.8,0.2
		c-0.3,0.1-0.5,0.3-0.7,0.5c-0.2,0.2-0.3,0.5-0.4,0.8c-0.1,0.3-0.2,0.7-0.2,1.1C539.4,118.7,539.5,119,539.6,119.3z"/>
	<path class="st1" d="M549.7,113.7v-1.3h1.1v1.3H549.7z M550.8,114.9v6.7h-1.1v-6.7H550.8z"/>
	<path class="st1" d="M553.5,114.9v1.1h0c0.5-0.8,1.2-1.2,2.2-1.2c0.4,0,0.8,0.1,1.1,0.2c0.3,0.1,0.5,0.3,0.7,0.5
		c0.2,0.2,0.3,0.5,0.4,0.8c0.1,0.3,0.1,0.6,0.1,1v4.4h-1.1v-4.5c0-0.4-0.1-0.7-0.4-1c-0.2-0.2-0.6-0.4-1-0.4c-0.3,0-0.6,0.1-0.9,0.2
		c-0.2,0.1-0.5,0.2-0.6,0.4c-0.2,0.2-0.3,0.4-0.4,0.7c-0.1,0.3-0.1,0.5-0.1,0.8v3.8h-1.1v-6.7H553.5z"/>
	<path class="st1" d="M564.6,121.6v-0.9h0c-0.2,0.4-0.5,0.6-0.9,0.8c-0.4,0.2-0.8,0.2-1.3,0.2c-0.5,0-1-0.1-1.3-0.3
		c-0.4-0.2-0.7-0.4-1-0.8c-0.3-0.3-0.4-0.7-0.6-1.1c-0.1-0.4-0.2-0.9-0.2-1.3c0-0.5,0.1-0.9,0.2-1.3c0.1-0.4,0.3-0.8,0.6-1.1
		c0.3-0.3,0.6-0.6,1-0.7c0.4-0.2,0.8-0.3,1.3-0.3c0.2,0,0.4,0,0.6,0.1c0.2,0,0.4,0.1,0.6,0.2s0.4,0.2,0.6,0.3
		c0.2,0.1,0.3,0.3,0.4,0.5h0v-3.4h1.1v9.2H564.6z M560.6,119.2c0.1,0.3,0.2,0.6,0.4,0.8c0.2,0.2,0.4,0.4,0.6,0.6
		c0.3,0.1,0.6,0.2,0.9,0.2c0.4,0,0.7-0.1,0.9-0.2c0.3-0.1,0.5-0.3,0.6-0.6c0.2-0.2,0.3-0.5,0.4-0.8c0.1-0.3,0.1-0.6,0.1-0.9
		c0-0.3,0-0.6-0.1-0.9c-0.1-0.3-0.2-0.6-0.4-0.8c-0.2-0.2-0.4-0.4-0.7-0.6c-0.3-0.1-0.6-0.2-1-0.2c-0.4,0-0.7,0.1-0.9,0.2
		c-0.3,0.1-0.5,0.3-0.6,0.6s-0.3,0.5-0.3,0.8c-0.1,0.3-0.1,0.6-0.1,1C560.5,118.6,560.5,118.9,560.6,119.2z"/>
	<path class="st1" d="M571.9,121.6v-1.1h0c-0.2,0.4-0.5,0.7-0.9,0.9c-0.4,0.2-0.8,0.3-1.3,0.3c-0.4,0-0.8-0.1-1.1-0.2
		c-0.3-0.1-0.5-0.3-0.7-0.5c-0.2-0.2-0.3-0.5-0.4-0.8c-0.1-0.3-0.1-0.6-0.1-1v-4.4h1.1v4.5c0,0.4,0.1,0.7,0.4,1
		c0.2,0.2,0.6,0.4,1,0.4c0.3,0,0.6-0.1,0.9-0.2c0.2-0.1,0.5-0.2,0.6-0.4c0.2-0.2,0.3-0.4,0.4-0.7c0.1-0.3,0.1-0.5,0.1-0.8v-3.8h1.1
		v6.7H571.9z"/>
	<path class="st1" d="M575.4,120.1c0.1,0.2,0.2,0.3,0.4,0.4c0.2,0.1,0.4,0.2,0.6,0.2c0.2,0,0.4,0.1,0.7,0.1c0.2,0,0.4,0,0.5,0
		c0.2,0,0.4-0.1,0.5-0.1c0.2-0.1,0.3-0.2,0.4-0.3c0.1-0.1,0.2-0.3,0.2-0.5c0-0.3-0.1-0.5-0.3-0.6c-0.2-0.1-0.5-0.3-0.8-0.4
		c-0.3-0.1-0.7-0.2-1.1-0.2c-0.4-0.1-0.7-0.2-1.1-0.3c-0.3-0.1-0.6-0.3-0.8-0.6c-0.2-0.2-0.3-0.6-0.3-1c0-0.3,0.1-0.6,0.2-0.9
		c0.2-0.2,0.3-0.4,0.6-0.6c0.2-0.2,0.5-0.3,0.8-0.3c0.3-0.1,0.6-0.1,0.9-0.1c0.4,0,0.7,0,1,0.1s0.6,0.2,0.8,0.3
		c0.2,0.2,0.4,0.4,0.6,0.6c0.1,0.3,0.2,0.6,0.3,1h-1.1c0-0.2-0.1-0.4-0.2-0.5c-0.1-0.1-0.2-0.3-0.4-0.3c-0.1-0.1-0.3-0.1-0.5-0.2
		c-0.2,0-0.4-0.1-0.5-0.1c-0.2,0-0.3,0-0.5,0c-0.2,0-0.3,0.1-0.5,0.1c-0.1,0.1-0.2,0.2-0.3,0.3c-0.1,0.1-0.1,0.2-0.1,0.4
		c0,0.2,0.1,0.3,0.2,0.5c0.1,0.1,0.3,0.2,0.5,0.3c0.2,0.1,0.4,0.2,0.7,0.2c0.3,0.1,0.5,0.1,0.8,0.2c0.3,0.1,0.5,0.1,0.8,0.2
		c0.3,0.1,0.5,0.2,0.7,0.3c0.2,0.1,0.4,0.3,0.5,0.5c0.1,0.2,0.2,0.5,0.2,0.8c0,0.4-0.1,0.7-0.3,1c-0.2,0.3-0.4,0.5-0.7,0.6
		c-0.3,0.2-0.6,0.3-0.9,0.3s-0.7,0.1-1,0.1c-0.4,0-0.7,0-1.1-0.1c-0.3-0.1-0.6-0.2-0.9-0.4c-0.3-0.2-0.5-0.4-0.6-0.7
		c-0.2-0.3-0.2-0.6-0.3-1.1h1.1C575.2,119.7,575.3,119.9,575.4,120.1z"/>
	<path class="st1" d="M583.8,114.9v1h-1.3v4.1c0,0.1,0,0.2,0,0.3c0,0.1,0.1,0.1,0.1,0.2c0.1,0,0.1,0.1,0.3,0.1s0.2,0,0.4,0h0.5v1
		H583c-0.3,0-0.5,0-0.7-0.1c-0.2,0-0.4-0.1-0.5-0.2c-0.1-0.1-0.2-0.2-0.3-0.4c-0.1-0.2-0.1-0.4-0.1-0.7v-4.2h-1.1v-1h1.1v-2h1.1v2
		H583.8z"/>
	<path class="st1" d="M586.1,114.9v1.4h0c0.3-0.5,0.6-0.9,1-1.2s0.9-0.4,1.5-0.4v1.2c-0.4,0-0.8,0.1-1.1,0.2
		c-0.3,0.1-0.6,0.3-0.7,0.5c-0.2,0.2-0.3,0.5-0.4,0.8c-0.1,0.3-0.1,0.7-0.1,1.1v3H585v-6.7H586.1z"/>
	<path class="st1" d="M592,122.5c-0.1,0.3-0.3,0.6-0.4,0.8c-0.1,0.2-0.3,0.4-0.4,0.5c-0.2,0.1-0.3,0.2-0.5,0.3
		c-0.2,0.1-0.4,0.1-0.6,0.1c-0.1,0-0.3,0-0.4,0c-0.1,0-0.3,0-0.4-0.1v-1c0.1,0,0.2,0.1,0.3,0.1c0.1,0,0.2,0,0.3,0
		c0.2,0,0.4-0.1,0.6-0.2c0.2-0.1,0.3-0.3,0.3-0.5l0.5-1.1l-2.6-6.6h1.2l2,5.5h0l1.9-5.5h1.2L592,122.5z"/>
</g>
<path class="st1" d="M360.8,50.4h11.8v52.1h-11.8V50.4z"/>
<path class="st1" d="M376.8,50.4H388v8.4l0.2,0.2c1.8-3,4.2-5.3,7.1-7c2.9-1.7,6.1-2.5,9.6-2.5c5.9,0,10.5,1.5,13.9,4.6
	c3.4,3,5.1,7.6,5.1,13.7v34.8h-11.8V70.8c-0.1-4.2-1-7.3-2.7-9.2c-1.7-1.9-4.3-2.9-7.8-2.9c-2,0-3.8,0.4-5.4,1.1
	c-1.6,0.7-2.9,1.7-4,3c-1.1,1.3-2,2.8-2.6,4.5c-0.6,1.7-0.9,3.6-0.9,5.5v29.6h-11.8V50.4z"/>
<path class="st1" d="M456,77.2c0,2.1,0.3,4.1,0.9,6c0.6,1.9,1.5,3.6,2.6,5.1c1.2,1.5,2.7,2.6,4.5,3.5c1.8,0.9,3.9,1.3,6.4,1.3
	c3.5,0,6.2-0.7,8.4-2.2c2.1-1.5,4.7-4.1,4.7-7.1h11.2c-0.6,2.9-1.7,5.9-3.2,8.2c-1.5,2.3-3.4,4.2-5.5,5.8c-2.1,1.6-4.5,2.7-7.2,3.5
	c-2.7,0.8-5.4,1.2-8.4,1.2c-4.2,0-8-0.7-11.2-2.1c-3.3-1.4-6-3.3-8.2-5.8c-2.2-2.5-3.9-5.5-5.1-8.9c-1.1-3.5-1.7-7.3-1.7-11.4
	c0-3.8,0.6-7.4,1.8-10.8c1.2-3.4,2.9-6.4,5.2-9c2.2-2.6,5-4.7,8.1-6.2c3.2-1.5,6.8-2.3,10.8-2.3c4.2,0,8,0.9,11.4,2.6
	c3.4,1.8,6.1,4.1,8.4,7c2.2,2.9,3.8,6.2,4.8,10c1,3.8,1.3,7.7,0.8,11.7H456z M483.6,69.5c-0.1-1.9-0.5-3.7-1.2-5.4
	c-0.7-1.7-1.6-3.2-2.7-4.5c-1.1-1.3-2.5-2.3-4.2-3.1c-1.6-0.8-3.4-1.2-5.4-1.2c-2.1,0-4,0.4-5.7,1.1c-1.7,0.7-3.1,1.7-4.4,3
	c-1.2,1.3-2.2,2.8-2.9,4.5c-0.7,1.7-1.1,3.6-1.2,5.6H483.6z"/>
<path class="st1" d="M508.7,83.8c0.3,3.5,1.7,5.9,3.9,7.3c2.3,1.4,5,2.1,8.2,2.1c1.1,0,2.4-0.1,3.8-0.3c1.4-0.2,2.7-0.5,4-1
	c1.2-0.5,2.3-1.2,3.1-2.1c0.8-0.9,1.2-2.2,1.1-3.7c-0.1-1.5-0.6-2.8-1.7-3.7c-1-1-2.4-1.7-4-2.3c-1.6-0.6-3.5-1.1-5.6-1.5
	c-2.1-0.4-4.2-0.9-6.3-1.3c-2.2-0.5-4.3-1.1-6.4-1.8c-2-0.7-3.9-1.6-5.5-2.8c-1.6-1.2-2.9-2.7-3.9-4.5c-1-1.8-1.5-4.1-1.5-6.8
	c0-2.9,0.7-5.3,2.1-7.3c1.4-2,3.2-3.6,5.4-4.8c2.2-1.2,4.6-2.1,7.3-2.5c2.7-0.5,5.2-0.7,7.6-0.7c2.8,0,5.4,0.3,7.9,0.9
	c2.5,0.6,4.8,1.5,6.8,2.9c2,1.3,3.7,3,5.1,5.1c1.3,2.1,2.2,4.7,2.5,7.6h-12.3c-0.6-2.8-1.9-4.7-3.9-5.7c-2-1-4.4-1.5-7-1.5
	c-0.8,0-1.8,0.1-3,0.2c-1.1,0.1-2.2,0.4-3.2,0.8c-1,0.4-1.9,0.9-2.5,1.7c-0.7,0.7-1,1.7-1,2.9c0,1.5,0.5,2.6,1.5,3.5
	c1,0.9,2.3,1.6,3.9,2.2c1.6,0.6,3.5,1.1,5.6,1.5c2.1,0.4,4.2,0.9,6.4,1.3c2.1,0.5,4.3,1.1,6.3,1.8c2.1,0.7,3.9,1.6,5.6,2.8
	c1.6,1.2,2.9,2.7,3.9,4.5c1,1.8,1.5,4,1.5,6.6c0,3.2-0.7,5.9-2.2,8.1c-1.5,2.2-3.3,4-5.7,5.4c-2.3,1.4-4.9,2.4-7.7,3
	c-2.8,0.6-5.6,0.9-8.4,0.9c-3.4,0-6.5-0.4-9.4-1.1c-2.9-0.8-5.4-1.9-7.5-3.5c-2.1-1.6-3.8-3.5-5-5.8c-1.2-2.3-1.9-5.1-1.9-8.2H508.7
	z"/>
<path class="st1" d="M559.1,83.8c0.3,3.5,1.7,5.9,3.9,7.3c2.3,1.4,5,2.1,8.2,2.1c1.1,0,2.4-0.1,3.8-0.3c1.4-0.2,2.7-0.5,4-1
	c1.2-0.5,2.3-1.2,3.1-2.1c0.8-0.9,1.2-2.2,1.1-3.7c-0.1-1.5-0.6-2.8-1.7-3.7c-1-1-2.4-1.7-4-2.3c-1.6-0.6-3.5-1.1-5.6-1.5
	c-2.1-0.4-4.2-0.9-6.3-1.3c-2.2-0.5-4.3-1.1-6.4-1.8c-2-0.7-3.9-1.6-5.5-2.8c-1.6-1.2-2.9-2.7-3.9-4.5c-1-1.8-1.5-4.1-1.5-6.8
	c0-2.9,0.7-5.3,2.1-7.3c1.4-2,3.2-3.6,5.4-4.8c2.2-1.2,4.6-2.1,7.3-2.5c2.7-0.5,5.2-0.7,7.6-0.7c2.8,0,5.4,0.3,7.9,0.9
	c2.5,0.6,4.8,1.5,6.8,2.9c2,1.3,3.7,3,5.1,5.1c1.3,2.1,2.2,4.7,2.5,7.6h-12.3c-0.6-2.8-1.9-4.7-3.9-5.7c-2-1-4.4-1.5-7-1.5
	c-0.8,0-1.8,0.1-3,0.2c-1.1,0.1-2.2,0.4-3.2,0.8c-1,0.4-1.9,0.9-2.5,1.7c-0.7,0.7-1,1.7-1,2.9c0,1.5,0.5,2.6,1.5,3.5
	c1,0.9,2.3,1.6,3.9,2.2c1.6,0.6,3.5,1.1,5.6,1.5c2.1,0.4,4.2,0.9,6.4,1.3c2.1,0.5,4.3,1.1,6.3,1.8c2.1,0.7,3.9,1.6,5.6,2.8
	c1.6,1.2,2.9,2.7,3.9,4.5c1,1.8,1.5,4,1.5,6.6c0,3.2-0.7,5.9-2.2,8.1c-1.5,2.2-3.3,4-5.7,5.4c-2.3,1.4-4.9,2.4-7.7,3
	c-2.8,0.6-5.6,0.9-8.4,0.9c-3.4,0-6.5-0.4-9.4-1.1c-2.9-0.8-5.4-1.9-7.5-3.5s-3.8-3.5-5-5.8c-1.2-2.3-1.9-5.1-1.9-8.2H559.1z"/>
<path class="st1" d="M344.8,50.4v6.2h-0.2c-1.5-2.6-3.7-4.6-6.4-6.2c-2.8-1.6-5.8-2.4-9.1-2.4c-4.3,0-8,0.8-11.2,2.3
	c-3.1,1.6-5.7,3.6-7.8,6.3c-2,2.6-3.6,5.6-4.6,9c-1,3.4-1.5,6.9-1.5,10.5c0,3.6,0.5,7.1,1.5,10.5c1,3.4,2.4,6.4,4.4,9
	c2,2.6,4.4,4.7,7.4,6.3c3,1.6,6.5,2.4,10.5,2.4c3.8,0,7.2-0.7,10.2-2.1c3-1.4,5.3-3.7,7-7.1h0.3c0,0.3,0.1,0.5,0.1,0.7v6.6h11.3
	V91.4V64V50.4H344.8z M344.5,82.8c-0.5,2.3-1.4,4.4-2.5,6.2c-1.2,1.8-2.7,3.3-4.7,4.5c-1.9,1.1-4.3,1.7-7.2,1.7
	c-2.6,0-4.7-0.6-6.5-1.7c-1.8-1.1-3.3-2.6-4.4-4.5c-1.1-1.8-2-3.9-2.5-6.2c-0.6-2.3-0.8-4.5-0.8-6.7c0-2.4,0.2-4.7,0.7-6.9
	c0.5-2.2,1.3-4.3,2.4-6c1.1-1.8,2.7-3.2,4.6-4.3c1.9-1.1,4.4-1.6,7.3-1.6c2.4,0,4.5,0.5,6.3,1.5c1.8,1,3.3,2.3,4.5,3.9
	c1.2,1.7,2.1,3.6,2.7,5.8c0.6,2.2,0.9,4.6,0.9,7.2C345.3,78.1,345,80.5,344.5,82.8z"/>
<path class="st1" d="M107.1,33.5v12.7c0,0-25.2,24.9-32.6,32.9c-7.4,8-15.8,7.4-15.8,7.4H36.4l0.1-53.1c0,0,7.6,0,22.3,0
	c13.3,0,19.5,14.2,20.6,17l11.3-11.3l0.2-0.2c-9.5-20.8-34.1-20.9-34.1-20.9H21.4V102c0,0,6.9,0,31,0c19.8,0,29.6-8.6,32.5-11.7
	c1-1.1,2.1-2.2,3.1-3.3l34.4-34.2V18.3h-0.1L107.1,33.5z"/>
<polygon class="st1" points="295.6,18.2 283.8,30.1 283.8,41.4 274.9,41.4 274.9,50.2 283.8,50.2 283.8,71.5 283.8,90.8 
	283.8,102.5 288.5,102.5 292.7,102.5 295.6,102.5 295.6,96.1 295.6,87.8 295.6,71.5 295.6,50.2 306.3,50.2 306.3,41.4 295.6,41.4 
	"/>
<polygon class="st1" points="428.5,30.1 428.5,102.5 440.3,102.5 440.3,18.2 "/>
<g>
	<path class="st1" d="M265.7,60.7c-2.6-1.7-5.2-3-7.8-3.7c-2.8-0.8-5-1.4-6.5-1.7l-0.1,0l-0.1,0c-5.6-1.4-9.9-2.5-13.2-3.4
		c-3.6-0.9-6.3-1.9-8.4-2.8c-2.4-1.1-4.1-2.5-5.1-4c-0.9-1.5-1.4-3.4-1.4-5.6c0-2.4,0.6-4.5,1.7-6.2c1-1.5,2.3-2.8,3.9-3.9
		c1.6-1,3.3-1.7,5.2-2.1c1.7-0.4,3.5-0.5,5.2-0.5c2.5,0,4.9,0.2,7.1,0.7c2.3,0.5,4.4,1.3,6.3,2.5c2,1.2,3.5,2.9,4.7,5.1
		c0.8,1.4,1.3,3.1,1.7,4.9h12.9c-0.3-3.3-1.1-6.2-2.4-8.6c-1.7-3.1-4-5.7-6.8-7.7c-2.9-2-6.3-3.6-10.1-4.5c-3.9-1-8.1-1.4-12.4-1.4
		c-3.6,0-7.3,0.5-10.9,1.5c-3.5,1-6.8,2.5-9.5,4.4c-2.7,1.9-5,4.4-6.7,7.3c-1.6,2.8-2.5,6.2-2.5,10.2c0,3.5,0.6,6.4,1.9,8.8
		c1.3,2.4,3,4.5,5.1,6.1c2.2,1.7,4.7,3.1,7.5,4.2c3,1.1,6,2.1,9.2,2.9l0,0l0,0c3.1,0.9,6.2,1.7,9.2,2.4c3.2,0.8,6.1,1.7,8.7,2.7
		c2.8,1.1,5.1,2.5,6.8,4.3c2.1,2,3.1,4.6,3.1,7.8c0,2.9-0.8,5.3-2.3,7.2c-1.4,1.8-3.2,3.2-5.3,4.1c-2,0.9-4.1,1.6-6.3,1.9
		c-2.1,0.3-4,0.5-5.9,0.5c-2.7,0-5.4-0.3-8-1c-2.7-0.7-5.1-1.8-7.1-3.3c-2.1-1.5-3.8-3.5-5.1-5.9c-0.9-1.7-1.5-3.7-1.7-5.9h-12.8
		c0.2,3.7,1.1,6.9,2.5,9.6c1.8,3.5,4.3,6.4,7.3,8.6c3.1,2.3,6.8,4,10.9,5.1c4.2,1.1,8.7,1.7,13.2,1.7c5.6,0,10.6-0.7,14.8-1.9
		c4.1-1.3,7.6-3,10.3-5.3c2.7-2.2,4.7-4.8,6.1-7.8c1.4-3,2.1-6.3,2.1-9.9c0-4.3-0.9-7.8-2.6-10.4C270.4,64.6,268.2,62.4,265.7,60.7z
		"/>
</g>
<polygon class="st2" points="107.1,91.9 107.1,102 122.5,102 122.5,76.5 "/>
<polygon class="st1" points="159,33.6 159,52.8 146.2,52.8 131.7,67.3 159,67.3 159,102 174.4,102 174.4,18.2 "/>
<polygon class="st2" points="360.8,30.1 360.8,41.4 372.6,41.4 372.6,18.2 "/>
</svg>
